<svg  class="icon" viewBox="0 0 1045 1024" version="1.1" xmlns="http://www.w3.org/2000/svg"
    width="204.1015625" height="200">
    <path
            d="M708.266667 234.666667c57.6 0 102.4 46.933333 102.4 102.4v520.533333c0 55.466667-46.933333 102.4-102.4 102.4H187.733333C132.266667 960 85.333333 913.066667 85.333333 857.6V337.066667C85.333333 281.6 132.266667 234.666667 187.733333 234.666667h520.533334z m0 85.333333H187.733333c-8.533333 0-17.066667 8.533333-17.066666 17.066667v520.533333c0 8.533333 8.533333 17.066667 17.066666 17.066667h520.533334c8.533333 0 17.066667-8.533333 17.066666-17.066667V337.066667c0-8.533333-8.533333-17.066667-17.066666-17.066667zM448 448c23.466667 0 42.666667 19.2 42.666667 42.666667v64h64c23.466667 0 42.666667 19.2 42.666666 42.666666s-19.2 42.666667-42.666666 42.666667h-64v64c0 23.466667-19.2 42.666667-42.666667 42.666667s-42.666667-19.2-42.666667-42.666667v-64h-64c-23.466667 0-42.666667-19.2-42.666666-42.666667s19.2-42.666667 42.666666-42.666666h64v-64c0-23.466667 19.2-42.666667 42.666667-42.666667zM878.933333 64C934.4 64 981.333333 110.933333 981.333333 166.4v520.533333c0 23.466667-19.2 42.666667-42.666666 42.666667s-42.666667-19.2-42.666667-42.666667V166.4c0-8.533333-8.533333-17.066667-17.066667-17.066667H358.4c-23.466667 0-42.666667-19.2-42.666667-42.666666s19.2-42.666667 42.666667-42.666667h520.533333z"
          fill="#333333" >

    </path>
</svg>