
<svg class="icon" viewBox="0 0 1024 1024" version="1.1" xmlns="http://www.w3.org/2000/svg"
      width="200" height="200">
    <path d="M512 0C226.742857 0 0 226.742857 0 512s226.742857 512 512 512 512-226.742857 512-512-226.742857-512-512-512zM285.257143 804.571429l-21.942857-43.885715C438.857143 731.428571 585.142857 680.228571 694.857143 607.085714l36.571428 29.257143C607.085714 724.114286 460.8 775.314286 285.257143 804.571429z m329.142857-270.628572l29.257143 36.571429c-109.714286 65.828571-226.742857 109.714286-343.771429 131.657143-7.314286-14.628571-14.628571-29.257143-21.942857-36.571429 124.342857-29.257143 234.057143-73.142857 336.457143-131.657143z m-314.514286 29.257143c80.457143-21.942857 160.914286-58.514286 248.685715-109.714286l29.257142 36.571429c-80.457143 51.2-160.914286 87.771429-248.685714 117.028571-7.314286-14.628571-21.942857-29.257143-29.257143-43.885714z m497.371429 29.257143c-87.771429-36.571429-168.228571-95.085714-219.428572-160.914286h-146.285714c-58.514286 65.828571-131.657143 117.028571-212.114286 160.914286-7.314286-14.628571-21.942857-21.942857-29.257142-36.571429 73.142857-36.571429 131.657143-73.142857 182.857142-124.342857H212.114286v-43.885714h204.8c7.314286-21.942857 21.942857-36.571429 36.571428-51.2-36.571429 0-80.457143 7.314286-117.028571 7.314286-14.628571 0-29.257143 0-51.2 7.314285l-14.628572-51.2c21.942857-7.314286 36.571429-14.628571 58.514286-29.257143 36.571429-29.257143 73.142857-65.828571 124.342857-109.714285l51.2 29.257143c-51.2 36.571429-95.085714 73.142857-146.285714 102.4C438.857143 292.571429 533.942857 292.571429 636.342857 285.257143c-21.942857-14.628571-43.885714-36.571429-65.828571-51.2l29.257143-29.257143c65.828571 43.885714 117.028571 87.771429 160.914285 124.342857l-36.571428 29.257143c-14.628571-7.314286-29.257143-21.942857-43.885715-36.571429-73.142857 0-146.285714 7.314286-219.428571 7.314286l36.571429 14.628572c-7.314286 21.942857-14.628571 29.257143-21.942858 43.885714h343.771429v43.885714H629.028571c51.2 58.514286 124.342857 95.085714 204.8 117.028572-14.628571 21.942857-29.257143 36.571429-36.571428 43.885714z"
          fill="#333333" >

    </path>
</svg>