
<svg  class="icon" viewBox="0 0 1024 1024" version="1.1" xmlns="http://www.w3.org/2000/svg"
     width="200" height="200">
    <path d="M959.5 512c0-247.15-200.35-447.5-447.5-447.5S64.5 264.85 64.5 512 264.85 959.5 512 959.5 959.5 759.15 959.5 512zM719.28 637.81c-16.86 12.84-40.93 9.59-53.75-7.28L512 428.88 358.47 630.53c-12.82 16.87-36.91 20.12-53.75 7.28-16.86-12.83-20.12-36.9-7.28-53.75l184.04-241.73c0.22-0.28 0.5-0.48 0.73-0.75 1.21-1.51 2.61-2.88 4.07-4.21 0.69-0.63 1.32-1.34 2.05-1.91 0.16-0.12 0.27-0.28 0.43-0.41 1.93-1.47 3.97-2.68 6.07-3.73 0.53-0.26 1.07-0.45 1.61-0.68 1.94-0.86 3.91-1.56 5.92-2.08 0.65-0.17 1.29-0.34 1.96-0.48 2.54-0.52 5.09-0.87 7.66-0.87h0.04c2.57 0 5.12 0.35 7.66 0.87 0.66 0.14 1.3 0.31 1.96 0.48 2.01 0.52 3.99 1.22 5.92 2.08 0.54 0.24 1.08 0.42 1.61 0.68 2.09 1.05 4.13 2.26 6.07 3.73 0.16 0.12 0.27 0.28 0.43 0.4 0.73 0.58 1.36 1.28 2.05 1.92 1.46 1.33 2.85 2.7 4.07 4.21 0.22 0.28 0.51 0.47 0.73 0.75l184.04 241.73c12.83 16.85 9.57 40.92-7.28 53.75z"
         >

    </path>
</svg>