<svg  class="icon" viewBox="0 0 1024 1024" version="1.1" xmlns="http://www.w3.org/2000/svg"
     width="200" height="200">
    <path d="M960 512C960 264 760 64 512 64S64 264 64 512s200 448 448 448 448-200 448-448zM553.6 726.4c-6.4-6.4-9.6-14.4-9.6-22.4s3.2-16 9.6-22.4l137.6-137.6H256c-17.6 0-32-14.4-32-32s14.4-32 32-32h433.6l-137.6-137.6c-4.8-6.4-8-14.4-8-22.4s3.2-16 9.6-22.4c12.8-12.8 32-12.8 44.8 0l192 192c6.4 6.4 9.6 14.4 9.6 22.4 0 8-3.2 16-9.6 22.4l-192 192c-12.8 12.8-32 12.8-44.8 0z"
          fill="#333333" >

    </path>
</svg>