<svg class="icon" viewBox="0 0 1024 1024" version="1.1" xmlns="http://www.w3.org/2000/svg"
     width="200" height="200">
    <path
            d="M666.688 756.16a38.272 38.272 0 0 1-26.816-10.368 36.48 36.48 0 0 1-10.752-26.176c0-9.472 3.584-18.944 10.752-25.92l148.8-144.256H144.768a37.632 37.632 0 0 1-38.464-37.44 37.76 37.76 0 0 1 38.464-37.44h643.072l-148.864-144.192a36.608 36.608 0 0 1-10.752-26.048c0-9.728 3.648-19.136 10.752-26.176 7.168-6.976 16.96-10.368 26.816-10.368s19.904 3.392 27.008 10.368l214.144 207.744a36.48 36.48 0 0 1 10.752 26.112c0 9.6-3.584 19.136-10.752 26.112l-214.144 207.744a38.976 38.976 0 0 1-26.112 10.304" >

    </path>
    <path d="M358.592 678.272a25.344 25.344 0 0 1-35.776 0l-150.656-150.656a25.152 25.152 0 0 1 0-35.776l145.984-146.048a25.152 25.152 0 0 1 35.776 0l150.656 150.656a25.408 25.408 0 0 1 0 35.904l-145.984 145.92z" fill="#101317" >

    </path>
</svg>