
<svg  class="icon" viewBox="0 0 1024 1024" version="1.1" xmlns="http://www.w3.org/2000/svg"
     width="200" height="200">
    <path d="M836.6 193.8h100.2c18.8 0 33.9-16.2 33.9-36.3s-15.1-35.2-33.9-35.2H724.9V85.9C724.9 40 690 2 646.6 2H377.9c-42.8 0-78.3 37.5-78.3 83.9v36.3H87.2c-18.8 0-33.9 16.2-33.9 36.3s15.1 36.3 33.9 36.3h100.2l649.2-1zM804.6 253.7l-585.2 1c-20.5 0-37.2 17.6-37.2 39.2V890c0 72.6 56.3 132 125.1 132h409.4c68.8 0 125.1-59.4 125.1-132V293c0-21.7-16.7-39.3-37.2-39.3z">

    </path>
</svg>