
<svg  class="icon" viewBox="0 0 1068 1024" version="1.1" xmlns="http://www.w3.org/2000/svg"
     width="208.59375" height="200">
    <path d="M984.242087 459.597913c26.89113 0 39.312696-12.377043 39.312696-40.336696V40.737391c2.048-20.658087-13.445565-39.268174-37.220174-39.268174h-375.407305c-26.89113 0-40.336696 13.445565-40.336695 41.405218v373.314782c0 28.93913 12.377043 42.384696 41.360695 42.384696 110.636522 1.024 261.654261 1.024 372.290783 1.024zM640.890435 73.906087h312.32v314.412522h-312.32V73.861565zM491.965217 574.419478v-8.281043a45.990957 45.990957 0 0 0-8.236521-20.702609c-8.281043-12.377043-24.84313-15.493565-38.288696-10.329043-1.024 1.024-3.116522 1.024-4.140522 2.092521h-361.961739c-26.89113 0-40.336696 13.401043-40.336696 40.292174v378.523826c0 23.774609 14.469565 38.288696 38.288696 38.288696h376.431304c22.706087 0 38.288696-13.445565 38.288696-36.196174v-383.688348zM410.267826 926.052174h-288.500869c-9.349565 0-12.466087-2.092522-12.466087-12.466087v-291.617391c0-9.305043 3.116522-12.377043 12.466087-12.377044h301.946434v304.038957c-1.024 10.329043-4.140522 12.421565-13.445565 12.421565zM128.979478 435.867826l66.203826-66.248348a34.326261 34.326261 0 0 0 0-48.573217c-13.445565-14.469565-33.124174-14.469565-48.617739-1.068522-2.092522 2.092522-4.140522 4.140522-8.281043 7.257044v-102.4c0-14.469565 0-28.93913 3.116521-43.408696 11.353043-54.806261 57.878261-92.070957 113.753044-93.050435h197.542956c19.634087 0 35.172174-15.582609 35.172174-35.172174 0-18.654609-14.514087-35.172174-33.124174-35.172174C420.641391 18.031304 266.50713 16.918261 232.403478 20.034783 152.709565 27.336348 83.478261 93.540174 72.125217 173.189565c-4.140522 32.055652-3.116522 106.540522-4.140521 139.620174v14.469565c-3.116522-3.116522-5.209043-4.140522-7.257044-6.233043-16.562087-14.425043-35.172174-14.425043-49.641739 0-13.445565 14.514087-13.445565 34.148174 1.024 49.686261 21.726609 21.682087 43.453217 44.477217 65.179826 66.159304 15.493565 13.445565 37.220174 13.445565 51.689739-1.024z m928.723479 191.265391A2188.733217 2188.733217 0 0 0 988.382609 557.857391a31.209739 31.209739 0 0 0-44.477218 0 2254.58087 2254.58087 0 0 0-70.344348 70.344348c-13.401043 13.445565-12.377043 34.103652 1.068522 47.549218 14.469565 14.469565 34.148174 14.469565 48.617739 1.024 2.048-2.048 4.140522-4.140522 8.281044-7.212522 0 29.96313 1.024 100.307478 0 128.222608-2.092522 55.874783-47.593739 104.448-102.4 108.633044-31.031652 2.048-180.98087 0.979478-210.988522 0.979478a34.860522 34.860522 0 0 0-35.172174 35.172174c0 19.678609 15.538087 35.172174 35.172174 35.172174 30.007652 0 178.93287 1.024 208.896 0 85.837913-3.116522 163.394783-75.50887 171.675826-161.346783 3.116522-31.031652 2.092522-104.448 2.092522-135.479652v-11.353043l8.281043 8.281043c14.469565 12.377043 36.196174 12.377043 48.573218-1.068521 12.466087-14.469565 12.466087-36.196174 0-49.64174z"
          fill="#2c2c2c" >

    </path>
</svg>