<svg t="1708078861549" class="icon" viewBox="0 0 1024 1024" version="1.1" xmlns="http://www.w3.org/2000/svg"
     p-id="26824" width="200" height="200">
    <path d="M 494.917 116.958 l 302.649 302.649 L 587.663 629.506 l -107.399 -107.399 l -351.452 351.476 c -21.5614 21.5614 -56.5333 21.5614 -78.1068 0 c -21.5626 -21.5626 -21.5626 -56.5333 0 -78.1079 L 402.17 444.014 l -117.156 -117.153 l 209.902 -209.902 Z M 212.39 283.525 c 17.5223 17.5223 45.9322 17.5223 63.4546 0 l 175.739 -175.739 c 17.5236 -17.5236 17.5236 -45.9322 0 -63.4558 c -17.5223 -17.5223 -45.9322 -17.5223 -63.4546 0 L 212.39 220.057 c -17.5223 17.5223 -17.5223 45.9444 0 63.4679 Z m 592.285 181.492 L 628.936 640.754 c -17.5223 17.5236 -17.5223 45.9334 0 63.4558 c 17.5236 17.5223 45.9322 17.5223 63.4558 0 L 868.13 528.472 c 17.5223 -17.5223 17.5223 -45.9322 0 -63.4546 c -17.5236 -17.5236 -45.9334 -17.5236 -63.4558 0 Z M 973.266 969.129 c 0 -51.9968 -42.1421 -94.1388 -94.1388 -94.1388 H 533.02 c -51.9968 0 -94.1388 42.1421 -94.1388 94.1388 h 534.386 Z"
          fill="" p-id="26825"></path>
</svg>