<?xml version="1.0" standalone="no"?>
<!DOCTYPE svg PUBLIC "-//W3C//DTD SVG 20010904//EN"
 "http://www.w3.org/TR/2001/REC-SVG-20010904/DTD/svg10.dtd">
<svg version="1.0" xmlns="http://www.w3.org/2000/svg"
 width="1280.000000pt" height="1235.000000pt" viewBox="0 0 1280.000000 1235.000000"
 preserveAspectRatio="xMidYMid meet">
<metadata>
Created by potrace 1.15, written by Peter Selinger 2001-2017
</metadata>
<g transform="translate(0.000000,1235.000000) scale(0.100000,-0.100000)"
fill="#000000" stroke="none">
<path d="M9250 12340 c-529 -51 -983 -199 -1432 -468 -528 -316 -983 -818
-1249 -1378 -123 -258 -213 -532 -264 -801 -51 -269 -49 -174 -52 -2000 l-4
-1703 -3109 0 c-2813 0 -3110 -1 -3124 -16 -15 -14 -16 -298 -16 -2979 0
-2681 1 -2965 16 -2979 14 -15 377 -16 3850 -16 2625 0 3841 3 3855 10 19 11
19 55 19 2985 0 2930 0 2974 -19 2985 -12 6 -123 10 -291 10 l-271 0 4 1683
c3 1680 3 1682 25 1795 54 282 119 472 236 698 311 598 860 1033 1510 1199
216 55 342 69 591 69 161 0 251 -4 335 -17 410 -64 772 -214 1098 -459 111
-84 332 -299 416 -406 262 -333 418 -693 492 -1132 17 -96 18 -218 21 -1477
l4 -1373 455 0 455 0 -4 1398 c-3 1366 -4 1400 -25 1537 -28 189 -46 275 -82
413 -286 1072 -1090 1924 -2137 2266 -218 71 -373 106 -629 141 -131 18 -542
27 -674 15z"/>
</g>
</svg>
