<?xml version="1.0" standalone="no"?><!DOCTYPE svg PUBLIC "-//W3C//DTD SVG 1.1//EN" "http://www.w3.org/Graphics/SVG/1.1/DTD/svg11.dtd"><svg t="1708788333085" class="icon" viewBox="0 0 1024 1024" version="1.1" xmlns="http://www.w3.org/2000/svg" p-id="8837" xmlns:xlink="http://www.w3.org/1999/xlink" width="200" height="200"><path d="M621.461 675.042h-28.299v178.88c0 17.6-14.4 32-32 32H437.363c-17.6 0-32-14.4-32-32v-178.88h-32.211c-24.634 0-40.03-26.667-27.713-48L469.593 412c12.317-21.333 43.109-21.333 55.426 0l124.155 215.042c12.317 21.334-3.079 48-27.713 48z" p-id="8838"></path><path d="M958.99 500.007a830.82 830.82 0 0 0-0.051-6.39l-0.021-1.369a33.988 33.988 0 0 0-0.379-4.378c-0.136-5.652-0.248-11.446-0.248-16.018 0-61.18-24.707-118.63-69.57-161.768-44.521-42.809-103.627-66.385-166.43-66.385-9.129 0-18.313 0.526-27.476 1.571-22.103-29.633-50.251-54.559-82.368-72.787-39.661-22.509-84.846-34.406-130.669-34.406-51.873 0-102.133 14.986-145.345 43.337-36.917 24.221-67.086 57.04-88.069 95.617-47.595 7.828-91.255 30.54-124.459 65.06-37.974 39.478-58.887 90.919-58.887 144.848 0 2.714 0.004 4.623 0.008 6.351-0.001 0.072-0.007 0.142-0.008 0.214v0.009c-0.002 0.144-0.003 0.29-0.003 0.434l-0.008 8.107c0.002 2.434 0.225 4.734 0.625 6.912 7.398 89.911 82.99 160.859 174.73 160.859h20.44c17.673 0 32-14.327 32-32s-14.327-32-32-32h-20.44c-61.287 0-111.229-49.866-111.331-111.18l-0.002-0.875c-0.005-1.86-0.009-3.85-0.009-6.833 0-76.592 62.772-141.769 142.908-148.38l18.652-1.539 7.803-17.011c32.862-71.642 104.85-117.933 183.398-117.933 69.774 0 133.688 35.49 170.967 94.935l11.775 18.776 21.718-4.421c11.956-2.434 24.086-3.668 36.053-3.668 94.841 0 172 73.639 172 164.153 0 7.508 0.252 17.275 0.464 25.295-1.437 59.99-51.183 108.679-111.202 108.679h-45.828c-17.673 0-32 14.327-32 32s14.327 32 32 32h45.828c46.123 0 89.724-17.922 122.771-50.464 29.603-29.15 47.628-66.962 51.612-107.676 0.667-2.701 1.042-5.609 1.057-8.73a552.32 552.32 0 0 0-0.006-2.946z" p-id="8839"></path></svg>